<svg id="Layer_1" data-name="Layer 1" xmlns="http://www.w3.org/2000/svg" viewBox="0 0 822 814"><defs><style>.cls-1{fill:#fff;}</style></defs><title>new navigation icon</title><path class="cls-1" d="M98.59,389.52c-.45,89,23.13,155.44,69,210.15C203,641.92,247,672.08,299.51,689.53a286,286,0,0,0,131.62,12c48.73-6.83,92.39-26,132.67-53.73a18.72,18.72,0,0,1,12-2.76c17.36,2.25,34.61,5.27,51.91,8,6.72,1.06,8.07-.62,5.65-7q-5.14-13.56-10.3-27.13c-7.65-20.12-7.49-20,4.82-37.58,26.88-38.35,44.7-80.45,51.19-127,11.76-84.38-7-161.31-60.81-227.6-68.34-84.15-158-120.17-265.53-107.72-75.06,8.7-137.12,44.17-185.64,102C121.92,275,99.31,337.63,98.59,389.52Z"/><path class="cls-1" d="M723.53,724.09c-16.34-2.78-30.8-5.33-45.29-7.67-30-4.85-60-9.74-90.08-14.17a19.76,19.76,0,0,0-12.27,2.52c-49.62,30.57-103.45,48.27-161.51,52-55.35,3.56-108.76-5.31-159.94-27.48Q165.1,690.59,107.76,612.23a344.64,344.64,0,0,1-60-134.73C33,406.4,38.88,337.09,66.68,270.05c29.4-70.9,77.06-126.88,142.54-166.88,85.94-52.51,178.33-64.89,275.28-39,61.17,16.32,113.61,48.56,157.76,94.11s74.37,99,89.6,160.46c16.28,65.7,14.25,131.11-6.78,195.68a350.63,350.63,0,0,1-41.46,85.55c-3,4.56-2.28,8.55-.62,13q18.66,50.21,37.2,100.47C721.29,716.38,722.08,719.43,723.53,724.09Z"/><path d="M544.74,471.15c-28.22-.24-49.6-22-49.33-50.31.29-30.24,24.3-53.32,55.32-53.19,26.31.12,48.24,23.16,48,50.44A53.44,53.44,0,0,1,544.74,471.15Z"/><path d="M338.3,423.23c.21-28.33,23.28-51.86,50.53-51.55,29.22.34,51.26,22.77,51.22,52.14-.05,28.49-23.79,51.08-53.49,50.88C360.61,474.54,338.1,450.53,338.3,423.23Z"/><path d="M287.45,427c-.3,26.39-21.54,47.76-47.09,47.37-28.92-.45-50.56-23-50.15-52.31a47.26,47.26,0,0,1,47.46-46.31A50.21,50.21,0,0,1,287.45,427Z"/></svg>