<svg id="Layer_1" data-name="Layer 1" xmlns="http://www.w3.org/2000/svg" viewBox="0 0 822 814"><defs><style>.cls-1{fill:none;stroke:#fff;stroke-miterlimit:10;stroke-width:42px;}.cls-2{fill:#fff;}</style></defs><title>new navigation icon</title><path class="cls-1" d="M741.45,735.86c-16-2.73-30.21-5.23-44.43-7.53-29.45-4.76-58.89-9.56-88.39-13.9a19.42,19.42,0,0,0-12,2.47c-48.68,30-101.5,47.37-158.47,51-54.32,3.49-106.72-5.21-156.94-27Q193.5,703,137.24,626.1A338.3,338.3,0,0,1,78.38,493.9c-14.49-69.77-8.73-137.78,18.55-203.56,28.85-69.57,75.62-124.5,139.86-163.75,84.33-51.53,175-63.67,270.12-38.3,60,16,111.47,47.65,154.8,92.34s73,97.13,87.92,157.45c16,64.47,14,128.65-6.66,192A343.86,343.86,0,0,1,702.29,614c-3,4.48-2.23,8.39-.6,12.78q18.3,49.27,36.5,98.59C739.26,728.29,740,731.28,741.45,735.86Z"/><path class="cls-2" d="M562.62,486.18c-27.07-.23-47.57-21.14-47.31-48.25.28-29,23.3-51.14,53.05-51,25.24.11,46.27,22.21,46,48.37A51.24,51.24,0,0,1,562.62,486.18Z"/><path class="cls-2" d="M363.46,440.64c.2-27.79,22.84-50.89,49.58-50.58,28.67.33,50.3,22.35,50.25,51.16,0,27.95-23.34,50.12-52.48,49.93C385.34,491,363.26,467.43,363.46,440.64Z"/><path class="cls-2" d="M309.21,445.33c-.31,27-22,48.87-48.18,48.47-29.58-.46-51.73-23.57-51.31-53.52a48.35,48.35,0,0,1,48.55-47.38A51.36,51.36,0,0,1,309.21,445.33Z"/></svg>