<svg id="Layer_1" data-name="Layer 1" xmlns="http://www.w3.org/2000/svg" viewBox="0 0 822 814"><defs><style>.cls-1,.cls-2,.cls-3,.cls-4{fill:none;stroke:#fff;stroke-miterlimit:10;}.cls-1{stroke-width:56px;}.cls-2{stroke-width:71px;}.cls-3{stroke-width:42px;}.cls-4{stroke-width:11px;}</style></defs><title>new navigation icon</title><path class="cls-1" d="M603.19,707.73a91.87,91.87,0,0,1-182.17-24"/><path class="cls-2" d="M628.49,714.53c-36.81-2.13-73.35-7.32-109.88-12.18-39-5.24-79.5-10.7-117.24-21.93-38.18-11.35-77-21.28-115.36-31.9-34-9.48-67.61-20.37-100.32-33.64-21.43-8.7-42.25-19.12-62.67-30-13.61-7.27-23.57-18.6-25.61-35-1.56-12.55,2.51-23.65,9.16-34C117.41,499,133,487.11,149.22,476c22.87-15.72,49.53-29.65,66.67-52.05,26.91-35.17,22.88-78.6,26-120.37,2.34-31.39,6.46-62.4,18.61-91.86,12.72-30.85,33-55.6,60.07-74.66,35-24.6,74.47-37.2,116.64-42.14,4.36-.51,8.8-1.18,13.14-.89,6.91.47,10.17-2.15,12.13-9a66.78,66.78,0,0,1,30.79-40c17.82-10.51,37.11-13,57.66-7.94,16,4,29.17,11.5,40.18,23.54,15.55,17,20.84,37.46,17.85,59.48-1.44,10.59,1.82,15.24,10.24,20.47,33,20.51,61.74,46,80.71,80.43,28.81,52.39,32.19,107.44,13,163.6-7,20.36-17.37,39.53-25.2,59.63a519.7,519.7,0,0,0-16.87,50.58c-8,29.12-.36,55.57,15.06,80.73,12.22,19.94,24.06,40.21,31.24,62.72,4.72,14.79,5.91,29.75,2,45-8.28,32.59-50.83,32.94-77.9,31.92Q634.86,714.9,628.49,714.53Z"/><path class="cls-3" d="M592.87,134.33c9.11-27.11-5.37-58.28-30-71.72-34.33-19.12-77.23-3.39-89.59,33.86-1.66,5-.3,6.41,4.78,6.68,20.15,1.09,39.42,2.33,59,7.68a229,229,0,0,1,55.81,23.53Z"/><path class="cls-4" d="M393,129.24S553.6,97.62,657.21,203.88c1.75-3-.65-41.87-.65-41.87s-52.92-27.85-54.08-29-70.57-14.29-72.09-16-45-12.17-45-12.17l-19.13-1.16-60.09-4-21.7,4.08-21.56,9.87,7.21,12.25Z"/></svg>