<svg id="Layer_1" data-name="Layer 1" xmlns="http://www.w3.org/2000/svg" viewBox="0 0 822 814"><defs><style>.cls-1,.cls-2{fill:none;}.cls-1,.cls-2,.cls-3{stroke:#fff;stroke-miterlimit:10;}.cls-1{stroke-width:56px;}.cls-2{stroke-width:71px;}.cls-3{fill:#fff;stroke-width:11px;}</style></defs><title>new navigation icon</title><path class="cls-1" d="M595.48,705c-6.83,47.75-54.42,81.36-106.29,75.08s-88.38-50.1-81.55-97.85"/><path class="cls-2" d="M621.57,711.48c-38-2-75.64-7-113.3-11.57-40.25-5-82-10.16-120.9-20.81C348,668.32,308,658.9,268.42,648.81c-35-9-69.72-19.32-103.44-31.93-22.1-8.25-43.56-18.14-64.62-28.49-14-6.9-24.31-17.66-26.41-33.2-1.6-11.91,2.59-22.45,9.44-32.29,11.18-16,27.25-27.3,44-37.88,23.59-14.93,51.08-28.16,68.75-49.42,27.75-33.37,23.59-74.6,26.8-114.25,2.41-29.79,6.67-59.23,19.19-87.2,13.12-29.28,34-52.77,61.93-70.86,36.08-23.35,76.8-35.31,120.28-40,4.5-.49,9.08-1.12,13.55-.84,7.13.44,10.49-2,12.51-8.54,5.1-16.34,16-29.39,31.75-37.94,18.37-10,38.26-12.37,59.45-7.54C558,72.19,571.66,79.35,583,90.78c16,16.15,21.48,35.56,18.4,56.46-1.48,10,1.88,14.47,10.56,19.43,34.07,19.46,63.66,43.61,83.22,76.34,29.71,49.73,33.19,102,13.37,155.3-7.19,19.32-17.91,37.51-26,56.59a466.74,466.74,0,0,0-17.39,48c-8.28,27.64-.38,52.75,15.52,76.63,12.61,18.93,24.81,38.17,32.22,59.54,4.86,14,6.09,28.24,2.1,42.68-8.54,30.93-52.41,31.26-80.33,30.3Q628.13,711.82,621.57,711.48Z"/><path class="cls-3" d="M378.68,156.09s165.44-29.25,272.5,70.67c1.8-2.83-.78-39.27-.78-39.27s-54.61-26.26-55.81-27.34S521.82,146.57,520.25,145s-46.45-11.52-46.45-11.52l-19.71-1.13-61.94-3.89-22.35,3.77-22.19,9.2,7.46,11.51Z"/><path class="cls-3" d="M286.69,219.25S251,233.7,253.86,392.7c11.42-1.31-72.8,96.83-147,141.92C105.4,532,94,574.44,94,574.44s435.59,130.4,488.15,134,124.38-12,124.38-12l-13-64.28L669,490.7l52-183.41s-79.24-89-82.08-91.33-.22-58.64-269-84.18Z"/></svg>