<svg id="Layer_1" data-name="Layer 1" xmlns="http://www.w3.org/2000/svg" viewBox="0 0 822 814"><defs><style>.cls-1{fill:#fff;stroke:#fff;stroke-miterlimit:10;stroke-width:50px;}</style></defs><title>new navigation icon</title><path class="cls-1" d="M436.62,781.43c-47.95.78-96.7-3.16-144.56-7.28-40.65-3.56-80.71-11.51-117.92-29.56C151.57,733.65,131.6,719.1,122.06,695c-14.45-36.44-8.82-70.95,15-101.85,18.77-24.32,44.42-40.59,70.53-55.83,35-20.43,70.42-40.05,108.64-54.08a85.9,85.9,0,0,0,19.87-10.55c38.78-27.49-17.6-75.69-32.9-99.59-26.41-41.27-39.92-90.64-41.83-139.39a273.15,273.15,0,0,1,6.06-70.2c16.3-72.75,70.62-120.43,144.74-129.22,39.45-4.68,77.78-1.06,113.43,17.74,46.47,24.51,73.06,64.26,83.94,114.7,10.34,47.89,5.74,98.17-10.5,144.22a301,301,0,0,1-32.57,65.5c-13,19.72-29.6,37.56-37,60.46-4.14,12.89-5,28.46,7.88,36.61a275,275,0,0,0,32,17.8c31.45,14.38,63.61,27.24,94.68,42.35a222,222,0,0,1,67.24,49.79c28.38,31,33.5,67.54,25,106.88-3.89,18.07-15.9,31.26-30.64,41.88-24,17.31-51.62,25.94-80,32.21C581.5,778.6,515.86,779.6,450.5,781.12l-9.36.22Zm.34-14.38c29.48-.68,59.16-3.61,88.46-4.67,40-1.45,80.15-4.42,119.24-13.53,23.93-5.58,47.33-12.76,68.08-26.52,13.69-9.07,25.4-20.27,28.8-37,6.74-33.18,2.9-64.35-21-90.52a174.17,174.17,0,0,0-18.35-17.59c-34-27.69-73.59-45.31-113.78-61.78-16.95-7-33.94-14-50.2-22.4-19.22-9.91-29.29-31.35-26.54-52.49,2.85-21.91,15.91-35.94,28.75-52.8,14.44-19,27.06-39,36.36-61,21.53-51,29.87-103.56,17.32-158.14-11.58-50.31-39.29-88.2-88-108.48-30.37-12.65-62.2-14.79-94.42-10.1C348.3,59.32,305.37,94.07,286,155.25c-15.52,48.95-12,98.32,3.68,146.68,7.12,22,17.36,42.79,29.35,62.51,10.7,17.58,25.19,32.65,34.66,51,14.09,27.3,12.24,58.88-16.49,75.13a94.11,94.11,0,0,1-14,6.72C289,509.72,257,526.87,225.55,544.9c-26.42,15.12-52.4,30.87-73.09,53.83C134.22,619,127.9,643.1,130.78,669.48c3,27.59,20.56,45.32,43.8,57.86,36.14,19.5,77.14,27.74,117.73,31.11q38.15,3.18,76.34,5.41c13.32.78,26.58,2.47,39.91,3C418,767.26,427.47,767.27,437,767.05Z"/><path class="cls-1" d="M436.68,732.17c-41.64.68-84-2.75-125.54-6.32-35.3-3.09-70.09-10-102.41-25.67-19.6-9.5-36.94-22.14-45.22-43-12.55-31.65-7.67-61.62,13-88.45,16.3-21.13,38.57-35.25,61.25-48.49,30.39-17.74,61.15-34.78,94.35-47a74.66,74.66,0,0,0,17.26-9.17c33.67-23.87-15.29-65.73-28.58-86.49-22.94-35.84-34.67-78.71-36.32-121a236.93,236.93,0,0,1,5.26-61C303.92,132.39,351.1,91,415.46,83.35c34.27-4.06,67.56-.92,98.52,15.4,40.35,21.29,63.44,55.81,72.9,99.61,9,41.59,5,85.26-9.12,125.25a261.63,261.63,0,0,1-28.29,56.88c-11.29,17.13-25.71,32.62-32.09,52.51-3.59,11.2-4.39,24.71,6.85,31.8A238.07,238.07,0,0,0,552,480.25c27.31,12.49,55.24,23.66,82.23,36.78a192.92,192.92,0,0,1,58.38,43.24c24.65,26.93,29.1,58.65,21.73,92.82-3.38,15.69-13.81,27.15-26.61,36.38-20.85,15-44.83,22.52-69.51,28-55.69,12.28-112.69,13.15-169.45,14.48l-8.13.18Zm.3-12.49c25.6-.59,51.38-3.14,76.82-4.06,34.75-1.25,69.61-3.83,103.55-11.74,20.79-4.85,41.11-11.08,59.13-23,11.89-7.88,22.06-17.61,25-32.11,5.85-28.82,2.52-55.89-18.26-78.61a150.26,150.26,0,0,0-15.93-15.28c-29.57-24.05-63.91-39.35-98.81-53.65-14.73-6-29.48-12.18-43.6-19.46-16.69-8.6-25.44-27.22-23.05-45.58,2.47-19,13.82-31.21,25-45.85,12.54-16.47,23.5-33.84,31.57-52.95,18.7-44.27,26-89.93,15-137.33-10-43.7-34.12-76.61-76.43-94.22-26.38-11-54-12.84-82-8.76-55,8-92.29,38.19-109.13,91.32-13.48,42.51-10.41,85.39,3.2,127.39,6.18,19.09,15.07,37.15,25.49,54.28,9.28,15.26,21.87,28.35,30.1,44.29,12.23,23.71,10.63,51.14-14.32,65.25a83.12,83.12,0,0,1-12.15,5.83c-29.73,10.8-57.45,25.69-84.8,41.34-22.94,13.14-45.51,26.82-63.47,46.75C174.07,591.07,168.57,612,171.08,635c2.62,24,17.85,39.36,38,50.24,31.39,16.94,67,24.09,102.25,27q33.12,2.74,66.3,4.69c11.56.68,23.08,2.15,34.66,2.62C420.51,719.86,428.74,719.87,437,719.68Z"/><path class="cls-1" d="M436.73,688.93c-36.1.58-72.8-2.38-108.84-5.48-30.61-2.68-60.77-8.67-88.79-22.26-17-8.24-32-19.19-39.21-37.31-10.88-27.44-6.64-53.43,11.31-76.69,14.13-18.32,33.44-30.57,53.11-42,26.34-15.39,53-30.16,81.8-40.72a64.71,64.71,0,0,0,15-7.95c29.19-20.7-13.26-57-24.78-75-19.88-31.08-30.06-68.25-31.49-104.95a205.81,205.81,0,0,1,4.56-52.86c12.27-54.78,53.18-90.69,109-97.3,29.71-3.52,58.57-.8,85.41,13.35,35,18.46,55,48.39,63.21,86.37,7.78,36.06,4.32,73.92-7.91,108.59A226.77,226.77,0,0,1,534.52,384c-9.78,14.84-22.29,28.28-27.82,45.52-3.11,9.71-3.8,21.43,5.94,27.57a208,208,0,0,0,24.05,13.4C560.37,481.34,584.59,491,608,502.4a167.25,167.25,0,0,1,50.63,37.49c21.37,23.35,25.23,50.85,18.84,80.48-2.94,13.6-12,23.53-23.08,31.53-18.08,13-38.86,19.53-60.26,24.25-48.28,10.65-97.71,11.4-146.92,12.55l-7.05.16ZM437,678.1c22.19-.51,44.54-2.72,66.6-3.52,30.13-1.09,60.35-3.32,89.78-10.18,18-4.2,35.64-9.61,51.26-20,10.31-6.83,19.13-15.27,21.69-27.84,5.07-25,2.19-48.45-15.83-68.16a130.79,130.79,0,0,0-13.81-13.24c-25.64-20.85-55.41-34.12-85.68-46.52-12.76-5.23-25.55-10.56-37.8-16.87-14.47-7.45-22.05-23.6-20-39.52,2.15-16.49,12-27,21.65-39.75,10.87-14.28,20.38-29.34,27.37-45.91,16.21-38.38,22.5-78,13-119.07-8.71-37.88-29.58-66.41-66.26-81.69-22.87-9.51-46.84-11.13-71.1-7.59-47.69,6.94-80,33.11-94.62,79.17-11.68,36.86-9,74,2.77,110.45A223.56,223.56,0,0,0,348.18,375c8.06,13.24,19,24.58,26.1,38.41,10.61,20.55,9.22,44.33-12.41,56.57A70.78,70.78,0,0,1,351.33,475c-25.77,9.37-49.81,22.28-73.52,35.85-19.89,11.39-39.46,23.25-55,40.53-13.73,15.23-18.5,33.41-16.33,53.27,2.27,20.78,15.49,34.13,33,43.57,27.22,14.68,58.09,20.89,88.65,23.43q28.71,2.39,57.48,4.07c10,.59,20,1.86,30.05,2.27C422.71,678.26,429.85,678.27,437,678.1Z"/><path class="cls-1" d="M436.78,651.84c-31.35.51-63.22-2.07-94.52-4.76-26.58-2.33-52.78-7.53-77.11-19.33-14.76-7.16-27.82-16.67-34-32.41-9.45-23.82-5.77-46.39,9.81-66.59,12.28-15.91,29-26.55,46.13-36.52,22.88-13.35,46-26.18,71-35.36a56,56,0,0,0,13-6.9c25.35-18-11.51-49.49-21.51-65.12-17.28-27-26.11-59.27-27.36-91.14a178.35,178.35,0,0,1,4-45.91c10.65-47.57,46.18-78.75,94.64-84.49,25.8-3.06,50.86-.7,74.17,11.59,30.39,16,47.77,42,54.89,75,6.76,31.31,3.75,64.19-6.86,94.3A197.21,197.21,0,0,1,521.71,387c-8.5,12.89-19.36,24.56-24.17,39.54-2.7,8.43-3.3,18.61,5.16,23.94a181.59,181.59,0,0,0,20.89,11.64c20.56,9.4,41.59,17.81,61.91,27.69a145.05,145.05,0,0,1,44,32.56c18.55,20.27,21.91,44.16,16.36,69.89-2.55,11.81-10.4,20.44-20,27.38-15.7,11.32-33.75,17-52.33,21.06-41.94,9.25-84.86,9.9-127.6,10.9l-6.12.14Zm.23-9.4c19.27-.45,38.69-2.37,57.84-3.06,26.16-1,52.41-2.89,78-8.85,15.65-3.64,30.95-8.34,44.52-17.33,8.95-5.94,16.61-13.26,18.83-24.18,4.41-21.7,1.9-42.08-13.74-59.19a113.27,113.27,0,0,0-12-11.5c-22.26-18.11-48.12-29.63-74.4-40.4-11.09-4.55-22.19-9.17-32.83-14.65-12.57-6.48-19.15-20.5-17.35-34.32,1.86-14.33,10.4-23.5,18.79-34.53,9.45-12.4,17.7-25.48,23.78-39.87,14.08-33.33,19.54-67.71,11.33-103.4-7.58-32.9-25.7-57.68-57.56-70.94-19.86-8.27-40.67-9.67-61.74-6.6-41.42,6-69.49,28.76-82.17,68.76-10.15,32-7.84,64.29,2.41,95.92a193.9,193.9,0,0,0,19.19,40.87c7,11.49,16.47,21.35,22.67,33.35,9.21,17.85,8,38.5-10.79,49.13a61.49,61.49,0,0,1-9.15,4.39c-22.38,8.13-43.25,19.34-63.84,31.13-17.28,9.89-34.27,20.19-47.8,35.2-11.92,13.23-16.06,29-14.17,46.26,2,18,13.44,29.64,28.63,37.84,23.64,12.75,50.45,18.14,77,20.35q24.94,2.07,49.92,3.53c8.71.51,17.38,1.61,26.1,2C424.61,642.57,430.8,642.58,437,642.44Z"/><path class="cls-1" d="M436.83,613.14c-26.39.43-53.23-1.74-79.58-4-22.38-2-44.44-6.34-64.93-16.28-12.42-6-23.41-14-28.67-27.28-7.95-20.06-4.85-39.07,8.27-56.08,10.33-13.39,24.45-22.34,38.83-30.74,19.27-11.24,38.77-22,59.81-29.77a46.88,46.88,0,0,0,10.94-5.81c21.35-15.13-9.69-41.67-18.11-54.83-14.54-22.72-22-49.9-23-76.74A150.26,150.26,0,0,1,343.7,273c9-40,38.88-66.3,79.68-71.14,21.73-2.57,42.83-.59,62.45,9.77,25.59,13.49,40.23,35.38,46.22,63.14,5.69,26.37,3.16,54-5.78,79.41a166,166,0,0,1-17.94,36.06C501.18,401.05,492,410.88,488,423.48c-2.28,7.1-2.78,15.67,4.34,20.16a152.08,152.08,0,0,0,17.59,9.8c17.31,7.91,35,15,52.13,23.32a122.1,122.1,0,0,1,37,27.41c15.63,17.07,18.45,37.18,13.78,58.84-2.15,10-8.76,17.21-16.87,23.06-13.22,9.53-28.42,14.28-44.07,17.73-35.3,7.78-71.44,8.33-107.42,9.18l-5.15.11Zm.19-7.91c16.23-.38,32.58-2,48.7-2.58,22-.79,44.13-2.43,65.65-7.44,13.18-3.08,26.06-7,37.48-14.6,7.54-5,14-11.16,15.86-20.36,3.71-18.27,1.6-35.43-11.57-49.84a98.21,98.21,0,0,0-10.1-9.68c-18.75-15.24-40.52-24.94-62.65-34-9.33-3.83-18.68-7.72-27.64-12.34-10.58-5.45-16.12-17.25-14.61-28.89,1.57-12.06,8.76-19.79,15.83-29.07a155.35,155.35,0,0,0,20-33.57c11.85-28.06,16.45-57,9.53-87.06-6.37-27.7-21.63-48.56-48.45-59.73-16.73-7-34.25-8.14-52-5.56-34.87,5.08-58.5,24.22-69.18,57.9-8.55,27-6.6,54.13,2,80.76a163.65,163.65,0,0,0,16.15,34.41c5.89,9.68,13.87,18,19.09,28.08,7.76,15,6.74,32.42-9.08,41.36a52.34,52.34,0,0,1-7.7,3.7C355.54,463.55,338,473,320.63,482.92c-14.55,8.33-28.85,17-40.24,29.64-10,11.13-13.52,24.43-11.94,39,1.66,15.19,11.32,25,24.12,31.85,19.89,10.74,42.47,15.27,64.82,17.13q21,1.75,42,3c7.34.43,14.64,1.36,22,1.66C426.58,605.34,431.8,605.35,437,605.23Z"/><path class="cls-1" d="M436.89,567c-20.48.33-41.31-1.35-61.75-3.11-17.37-1.52-34.48-4.92-50.38-12.63-9.64-4.67-18.17-10.89-22.25-21.17-6.17-15.57-3.77-30.31,6.42-43.51,8-10.39,19-17.34,30.13-23.85,14.95-8.73,30.08-17.11,46.41-23.11a36.57,36.57,0,0,0,8.49-4.5c16.56-11.75-7.52-32.34-14.06-42.55-11.28-17.63-17-38.72-17.86-59.55a116.24,116.24,0,0,1,2.58-30c7-31.08,30.17-51.45,61.83-55.2,16.86-2,33.24-.46,48.47,7.58,19.85,10.47,31.21,27.45,35.86,49,4.41,20.46,2.45,41.94-4.49,61.61a128.41,128.41,0,0,1-13.92,28c-5.55,8.42-12.64,16.05-15.78,25.83-1.77,5.51-2.16,12.16,3.37,15.64a116,116,0,0,0,13.65,7.6c13.43,6.15,27.17,11.64,40.44,18.1a94.73,94.73,0,0,1,28.73,21.27c12.12,13.24,14.31,28.85,10.69,45.66-1.67,7.72-6.8,13.35-13.1,17.89-10.25,7.4-22,11.08-34.19,13.76-27.39,6-55.43,6.47-83.36,7.12l-4,.09Zm.15-6.14c12.59-.3,25.27-1.55,37.79-2,17.09-.62,34.24-1.89,50.94-5.78,10.22-2.38,20.22-5.45,29.08-11.33,5.85-3.87,10.86-8.66,12.31-15.79,2.88-14.18,1.24-27.49-9-38.67a74.23,74.23,0,0,0-7.84-7.52c-14.55-11.83-31.44-19.36-48.61-26.39-7.24-3-14.5-6-21.45-9.57A21.93,21.93,0,0,1,469,421.34c1.21-9.35,6.79-15.35,12.28-22.55a120.46,120.46,0,0,0,15.53-26.05c9.2-21.78,12.76-44.24,7.4-67.55-5-21.5-16.79-37.69-37.6-46.35-13-5.4-26.57-6.32-40.34-4.31-27.06,3.94-45.4,18.78-53.68,44.92-6.63,20.91-5.12,42,1.57,62.67a127,127,0,0,0,12.54,26.7c4.57,7.51,10.76,13.94,14.81,21.79,6,11.66,5.23,25.15-7,32.09a39.91,39.91,0,0,1-6,2.87c-14.63,5.31-28.26,12.64-41.72,20.34-11.28,6.46-22.38,13.19-31.22,23-7.79,8.64-10.5,18.95-9.26,30.22,1.28,11.79,8.78,19.36,18.71,24.72,15.44,8.33,32.95,11.85,50.29,13.29q16.31,1.36,32.62,2.31c5.69.34,11.35,1.06,17.05,1.29C428.94,560.9,433,560.91,437,560.82Z"/><path class="cls-1" d="M437,520.39c-14.52.24-29.28-.95-43.78-2.2-12.31-1.08-24.44-3.49-35.71-9-6.83-3.32-12.88-7.72-15.77-15-4.37-11-2.67-21.49,4.55-30.85,5.68-7.36,13.45-12.29,21.36-16.91,10.6-6.18,21.32-12.12,32.9-16.37a26,26,0,0,0,6-3.2c11.74-8.32-5.33-22.92-10-30.16-8-12.5-12.09-27.45-12.66-42.21a82.52,82.52,0,0,1,1.83-21.26c4.94-22,21.39-36.47,43.83-39.13,11.95-1.42,23.56-.33,34.36,5.37C478,306.93,486,319,489.33,334.24a80.83,80.83,0,0,1-3.18,43.68,90.93,90.93,0,0,1-9.87,19.84c-3.93,6-9,11.37-11.19,18.31-1.25,3.9-1.53,8.62,2.39,11.08a82.54,82.54,0,0,0,9.68,5.39c9.52,4.36,19.26,8.25,28.67,12.83a67.29,67.29,0,0,1,20.36,15.08c8.6,9.39,10.15,20.45,7.58,32.37-1.18,5.47-4.82,9.46-9.28,12.68-7.28,5.24-15.63,7.86-24.24,9.75-19.42,4.29-39.3,4.59-59.09,5l-2.84.07Zm.11-4.35c8.92-.21,17.91-1.1,26.79-1.42,12.11-.43,24.27-1.33,36.11-4.09,7.24-1.69,14.33-3.87,20.61-8,4.15-2.75,7.7-6.14,8.72-11.2,2.05-10.05.89-19.49-6.36-27.41a50.87,50.87,0,0,0-5.56-5.33c-10.31-8.39-22.28-13.72-34.45-18.71-5.14-2.11-10.28-4.25-15.21-6.79a15.55,15.55,0,0,1-8-15.89c.87-6.63,4.82-10.88,8.71-16a85.2,85.2,0,0,0,11-18.47c6.52-15.43,9.05-31.36,5.25-47.89-3.51-15.23-11.9-26.71-26.66-32.85-9.2-3.83-18.83-4.48-28.59-3.06-19.18,2.8-32.18,13.32-38.06,31.85-4.7,14.82-3.63,29.78,1.12,44.42a89.1,89.1,0,0,0,8.89,18.93c3.23,5.32,7.62,9.89,10.49,15.45,4.27,8.26,3.71,17.83-5,22.75a28,28,0,0,1-4.24,2c-10.36,3.77-20,9-29.57,14.42-8,4.58-15.87,9.35-22.13,16.3-5.53,6.13-7.44,13.44-6.57,21.43.91,8.36,6.23,13.73,13.26,17.52,11,5.91,23.37,8.4,35.66,9.43q11.55,1,23.12,1.63c4,.24,8.05.75,12.09.91C431.31,516.1,434.18,516.11,437.06,516Z"/><path class="cls-1" d="M437,502.08c-12.17.2-24.55-.8-36.7-1.85-10.32-.9-20.5-2.92-29.95-7.51-5.73-2.77-10.8-6.47-13.22-12.58-3.67-9.25-2.24-18,3.81-25.86,4.77-6.18,11.28-10.31,17.91-14.18,8.89-5.19,17.88-10.17,27.59-13.73a22,22,0,0,0,5-2.68c9.84-7-4.47-19.22-8.36-25.29-6.71-10.48-10.14-23-10.62-35.4A69.25,69.25,0,0,1,394,345.18c4.14-18.47,17.93-30.58,36.75-32.81,10-1.19,19.75-.27,28.81,4.5,11.8,6.22,18.55,16.32,21.31,29.13a67.69,67.69,0,0,1-2.66,36.62A76.61,76.61,0,0,1,470,399.25c-3.3,5-7.51,9.54-9.38,15.35-1.05,3.28-1.28,7.23,2,9.3a70.82,70.82,0,0,0,8.12,4.52c8,3.65,16.15,6.92,24,10.75a56.55,56.55,0,0,1,17.07,12.65c7.21,7.87,8.51,17.15,6.35,27.14-1,4.58-4,7.93-7.78,10.63-6.1,4.4-13.1,6.59-20.32,8.18-16.28,3.59-32.95,3.84-49.55,4.23l-2.38.06Zm.09-3.65c7.49-.18,15-.92,22.47-1.19,10.15-.37,20.35-1.12,30.27-3.43,6.08-1.42,12-3.24,17.29-6.74,3.48-2.3,6.45-5.15,7.31-9.39,1.71-8.42.74-16.34-5.33-23a44.7,44.7,0,0,0-4.66-4.47c-8.65-7-18.69-11.5-28.9-15.69-4.3-1.76-8.61-3.56-12.74-5.69A13,13,0,0,1,456,415.53c.72-5.57,4-9.13,7.3-13.41a71.94,71.94,0,0,0,9.23-15.48c5.47-12.95,7.59-26.3,4.4-40.16-2.94-12.77-10-22.4-22.35-27.55-7.71-3.21-15.79-3.75-24-2.56-16.08,2.34-27,11.17-31.91,26.7-3.94,12.43-3,25,.94,37.25a75.59,75.59,0,0,0,7.45,15.87c2.72,4.47,6.4,8.29,8.8,12.95,3.58,6.94,3.11,15-4.18,19.08a24.23,24.23,0,0,1-3.56,1.71c-8.69,3.15-16.79,7.51-24.79,12.09-6.71,3.84-13.31,7.84-18.56,13.66-4.63,5.14-6.24,11.27-5.51,18,.77,7,5.22,11.51,11.13,14.69,9.17,5,19.58,7.05,29.89,7.9q9.69.81,19.39,1.38c3.38.2,6.75.62,10.13.76C432.25,498.48,434.65,498.48,437.06,498.43Z"/><path class="cls-1" d="M437,469c-7.94.1-16-.43-23.93-1a65.45,65.45,0,0,1-19.52-4c-3.74-1.49-7.05-3.47-8.62-6.74-2.4-5-1.47-9.66,2.48-13.86,3.11-3.31,7.35-5.52,11.68-7.59a124.79,124.79,0,0,1,18-7.36,15.66,15.66,0,0,0,3.29-1.43c6.42-3.74-2.91-10.3-5.45-13.55a33.46,33.46,0,0,1-6.92-19,30.86,30.86,0,0,1,1-9.55c2.7-9.89,11.69-16.38,24-17.57,6.54-.64,12.88-.15,18.78,2.41,7.69,3.33,12.1,8.74,13.9,15.6A30.19,30.19,0,0,1,463.91,405a39.22,39.22,0,0,1-5.39,8.91c-2.15,2.68-4.9,5.1-6.12,8.22-.68,1.75-.84,3.87,1.31,5a49.6,49.6,0,0,0,5.28,2.42c5.21,2,10.53,3.71,15.68,5.76a37.18,37.18,0,0,1,11.13,6.77c4.7,4.22,5.54,9.19,4.14,14.54-.65,2.46-2.63,4.25-5.07,5.7-4,2.35-8.55,3.53-13.25,4.38-10.62,1.92-21.48,2.06-32.3,2.27l-1.55,0Zm.05-2c4.88-.09,9.8-.49,14.65-.63a126.24,126.24,0,0,0,19.74-1.84A38.62,38.62,0,0,0,482.73,461c2.26-1.24,4.2-2.76,4.76-5,1.12-4.51.49-8.75-3.47-12.31a28.65,28.65,0,0,0-3-2.4c-5.64-3.76-12.18-6.16-18.84-8.4-2.8-.94-5.62-1.91-8.31-3.05a6.71,6.71,0,0,1-4.39-7.14c.47-3,2.63-4.88,4.76-7.18a37.84,37.84,0,0,0,6-8.29c3.56-6.93,4.94-14.09,2.86-21.51-1.91-6.84-6.5-12-14.57-14.76a34.94,34.94,0,0,0-15.63-1.37c-10.48,1.26-17.59,6-20.8,14.3-2.57,6.66-2,13.38.61,20a37.44,37.44,0,0,0,4.86,8.5c1.77,2.39,4.17,4.44,5.74,6.94,2.33,3.71,2,8-2.73,10.21a17.23,17.23,0,0,1-2.32.92,115.39,115.39,0,0,0-16.16,6.47c-4.38,2.06-8.68,4.2-12.1,7.33a10.5,10.5,0,0,0-3.59,9.62c.5,3.75,3.4,6.16,7.25,7.87,6,2.65,12.77,3.77,19.49,4.23q6.31.43,12.64.74c2.2.1,4.4.33,6.6.41C433.93,467.06,435.5,467.06,437.07,467Z"/></svg>