<svg id="Layer_1" data-name="Layer 1" xmlns="http://www.w3.org/2000/svg" viewBox="0 0 822 814"><defs><style>.cls-1{fill:#fff;}</style></defs><title>new navigation icon</title><path class="cls-1" d="M492.7,487.18q4.55,3,8.93,6.28c13.55,10.11,25.38,22.06,36.48,34.73,3.94,4.49,7.4,9.39,11.17,14.22l-13.34,10.18.3.89h21.37v167.6l1.77-178.36S533.29,510.35,492.7,487.18Z"/><path class="cls-1" d="M693.49,521.11c.27-47.74.81-95.48,1.08-143.22a8.73,8.73,0,0,0-2.45-5.67l1.24,176.86Q693.41,535.1,693.49,521.11Z"/><path class="cls-1" d="M460.66,536.68c-16.06-10.53-33.31-16.35-52.7-13.77v1.32c27.05-3.23,58.73,7.52,90.22,51.07,0-2.38-1.7-5.09-3.34-7C484.74,556.37,473.8,545.3,460.66,536.68Z"/><path class="cls-1" d="M505.71,772.66c.15-14.49.31-29,.32-43.48a12.68,12.68,0,0,0-6.61-10.95c0-.39,0-.81,0-1.25-.31-21.28-.48-42.55-.63-63.83-.2-25.95-.24-51.9-.63-77.84l.7,205v-7.6Z"/><path class="cls-1" d="M753.92,434.54c-8.08-6.08-23.16.63-19.82,13.2.8,3,1.47,6.09,2,9.16,0,.21-.08.42-.1.63-4.4,35.66-11.26,71.17-13.68,107.05-2.41,35.7-.48,71.52,2.87,107.1,1.92,20.39,4.31,40.73,6.64,61.07.61,5.36,3.57,10.13,8.46,11.82.28,9.06.9,18.1,2,27.1-1.91,0-3.82,0-5.71-.12-2.13-.12-3.73.09-4.49,1.11h17.54v6l5.4-348.82-1.15.3C754,431.58,753.94,433.06,753.92,434.54Z"/><path class="cls-1" d="M428.77,44.44,435.14,51l-5.33,18.77L408,58.48v57.69l3.28-3.14c1.48,1.13,3,2.11,4.3,3.31q38.28,35.31,76.51,70.67c27,25.06,53.87,50.26,80.91,75.27q46.8,43.28,93.81,86.34c8.49,7.82,17,15.59,25.35,23.6l63,57.58h0c4.65,4.25,9.31,8.49,14.16,12.91l40.56-44.34Z"/><path class="cls-1" d="M408,463.57v.72c31.72-1.29,60.76,9.19,84.74,22.89-13.7-9.07-28.43-16.11-44.59-20.11A127.34,127.34,0,0,0,408,463.57Z"/><path class="cls-1" d="M693.1,716.38c0,3-.74,4.07-3.86,4.07q-35.62,0-71.24.25-28.59.15-57.17.39h-3.21l137,1.24-1.21-173.25q-.21,53.19-.26,106.39C693.05,675.78,693,696.08,693.1,716.38Z"/><path class="cls-1" d="M692.12,372.22a8.73,8.73,0,0,1,2.45,5.67c-.27,47.74-.81,95.48-1.08,143.22q-.09,14-.13,28l1.21,173.25-137-1.24h0V553.48H536.24l-.3-.89,13.34-10.18c-3.77-4.83-7.23-9.73-11.17-14.22-11.1-12.67-22.93-24.62-36.48-34.73q-4.39-3.29-8.93-6.28c-24-13.7-53-24.18-84.74-22.89v58.62c19.39-2.58,36.64,3.24,52.7,13.77,13.14,8.62,24.08,19.69,34.18,31.6,1.64,1.93,3.3,4.64,3.34,7h0c.39,25.94.43,51.89.63,77.84.15,21.28.32,42.55.63,63.83,0,.44,0,.86,0,1.25A12.68,12.68,0,0,1,506,729.18c0,14.49-.17,29-.32,43.48H732.17c.76-1,2.36-1.23,4.49-1.11,1.89.1,3.8.12,5.71.12-1.14-9-1.76-18-2-27.1-4.89-1.69-7.85-6.46-8.46-11.82-2.33-20.34-4.72-40.68-6.64-61.07-3.35-35.58-5.28-71.4-2.87-107.1,2.42-35.88,9.28-71.39,13.68-107.05,0-.21.06-.42.1-.63-.57-3.07-1.24-6.13-2-9.16-3.34-12.57,11.74-19.28,19.82-13.2,0-1.48,0-3,0-4.44l1.15-.3h0Z"/><path class="cls-1" d="M408,32.92V27.73h-.19l-15.42,17.6,10.76-10.2C405.72,32.67,406.59,31.86,408,32.92Z"/><path class="cls-1" d="M410.66,36a17.65,17.65,0,0,0,2.12-1.8,24.66,24.66,0,0,0,1.84-2.85l14.15,13.14L412.42,27.73H408v5.19A21.17,21.17,0,0,1,410.66,36Z"/><path class="cls-1" d="M408,58.48V32.92c-1.37-1.06-2.24-.25-4.85,2.21l-10.76,10.2-3.1,3.53Z"/><path class="cls-1" d="M412.78,34.15a17.65,17.65,0,0,1-2.12,1.8,21.17,21.17,0,0,0-2.7-3V58.48l21.85,11.25L435.14,51l-6.37-6.52L414.62,31.3A24.66,24.66,0,0,1,412.78,34.15Z"/><polygon class="cls-1" points="498.88 786.27 749.71 786.27 749.71 778.62 498.88 780.26 498.88 786.27"/><path class="cls-1" d="M732.17,772.66c-.54.74-.66,1.88-.22,3.64a8.7,8.7,0,0,1-.2,2.1c-6.67,0-13.27,0-19.88,0L562,779.69q-28.18.24-56.36.51,0-3.76.08-7.54h-6.83v7.6l250.83-1.64v-6Z"/><path class="cls-1" d="M562,779.69l149.88-1.29c6.61,0,13.21,0,19.88,0a8.7,8.7,0,0,0,.2-2.1c-.44-1.76-.32-2.9.22-3.64H505.71q0,3.78-.08,7.54Q533.81,779.9,562,779.69Z"/><path class="cls-1" d="M329.3,487.18q-4.55,3-8.93,6.28c-13.55,10.11-25.38,22.06-36.48,34.73-3.94,4.49-7.4,9.39-11.17,14.22l13.34,10.18-.3.89H264.39v167.6l-1.77-178.36S288.71,510.35,329.3,487.18Z"/><path class="cls-1" d="M128.51,521.11c-.27-47.74-.81-95.48-1.08-143.22a8.73,8.73,0,0,1,2.45-5.67l-1.24,176.86Q128.6,535.1,128.51,521.11Z"/><path class="cls-1" d="M361.34,536.68c16.06-10.53,33.31-16.35,52.7-13.77v1.32C387,521,355.31,531.75,323.82,575.3c0-2.38,1.7-5.09,3.34-7C337.26,556.37,348.2,545.3,361.34,536.68Z"/><path class="cls-1" d="M316.29,772.66c-.15-14.49-.31-29-.32-43.48a12.68,12.68,0,0,1,6.61-10.95c0-.39,0-.81,0-1.25.31-21.28.48-42.55.63-63.83.2-25.95.24-51.9.63-77.84l-.7,205v-7.6Z"/><path class="cls-1" d="M68.08,434.54c8.08-6.08,23.16.63,19.82,13.2-.8,3-1.47,6.09-2,9.16,0,.21.08.42.1.63,4.4,35.66,11.26,71.17,13.68,107.05,2.41,35.7.48,71.52-2.87,107.1-1.92,20.39-4.31,40.73-6.64,61.07-.61,5.36-3.57,10.13-8.46,11.82-.28,9.06-.9,18.1-2,27.1,1.91,0,3.82,0,5.71-.12,2.13-.12,3.73.09,4.49,1.11H72.29v6L66.89,429.8l1.15.3C68.05,431.58,68.06,433.06,68.08,434.54Z"/><polygon class="cls-1" points="264.39 721.09 264.39 721.09 264.39 721.08 264.39 721.09"/><path class="cls-1" d="M393.23,44.44,386.86,51l5.33,18.77L414,58.48v57.69L410.76,113c-1.48,1.13-3,2.11-4.3,3.31Q368.18,151.65,330,187c-27,25.06-53.87,50.26-80.91,75.27q-46.8,43.28-93.81,86.34c-8.49,7.82-17,15.59-25.35,23.6l-63,57.58h0c-4.65,4.25-9.31,8.49-14.16,12.91L12.17,398.37Z"/><path class="cls-1" d="M414,463.57v.72c-31.72-1.29-60.76,9.19-84.74,22.89,13.7-9.07,28.43-16.11,44.59-20.11A127.34,127.34,0,0,1,414,463.57Z"/><path class="cls-1" d="M128.9,716.38c0,3,.74,4.07,3.86,4.07q35.63,0,71.24.25,28.59.15,57.17.39h3.21l-136.95,1.24,1.21-173.25q.21,53.19.26,106.39C129,675.78,129,696.08,128.9,716.38Z"/><path class="cls-1" d="M129.88,372.22a8.73,8.73,0,0,0-2.45,5.67c.27,47.74.81,95.48,1.08,143.22q.09,14,.13,28l-1.21,173.25,137-1.24h0V553.48h21.37l.3-.89-13.34-10.18c3.77-4.83,7.23-9.73,11.17-14.22,11.1-12.67,22.93-24.62,36.48-34.73q4.39-3.29,8.93-6.28c24-13.7,53-24.18,84.74-22.89v58.62c-19.39-2.58-36.64,3.24-52.7,13.77-13.14,8.62-24.08,19.69-34.18,31.6-1.64,1.93-3.3,4.64-3.34,7h0c-.39,25.94-.43,51.89-.63,77.84-.15,21.28-.32,42.55-.63,63.83,0,.44,0,.86,0,1.25A12.68,12.68,0,0,0,316,729.18c0,14.49.17,29,.32,43.48H89.83c-.76-1-2.36-1.23-4.49-1.11-1.89.1-3.8.12-5.71.12,1.14-9,1.76-18,2-27.1,4.89-1.69,7.85-6.46,8.46-11.82,2.33-20.34,4.72-40.68,6.64-61.07,3.35-35.58,5.28-71.4,2.87-107.1C97.22,528.7,90.36,493.19,86,457.53c0-.21-.06-.42-.1-.63.57-3.07,1.24-6.13,2-9.16,3.34-12.57-11.74-19.28-19.82-13.2,0-1.48,0-3,0-4.44l-1.15-.3h0Z"/><path class="cls-1" d="M414,32.92V27.73h.19l15.42,17.6-10.76-10.2C416.28,32.67,415.41,31.86,414,32.92Z"/><path class="cls-1" d="M411.34,36a17.65,17.65,0,0,1-2.12-1.8,24.66,24.66,0,0,1-1.84-2.85L393.23,44.44l16.35-16.71H414v5.19A21.17,21.17,0,0,0,411.34,36Z"/><path class="cls-1" d="M414,58.48V32.92c1.37-1.06,2.24-.25,4.85,2.21l10.76,10.2,3.1,3.53Z"/><path class="cls-1" d="M409.22,34.15a17.65,17.65,0,0,0,2.12,1.8,21.17,21.17,0,0,1,2.7-3V58.48L392.19,69.73,386.86,51l6.37-6.52L407.38,31.3A24.66,24.66,0,0,0,409.22,34.15Z"/><polygon class="cls-1" points="323.12 786.27 72.3 786.27 72.3 778.62 323.12 780.26 323.12 786.27"/><path class="cls-1" d="M89.83,772.66c.54.74.66,1.88.22,3.64a8.7,8.7,0,0,0,.2,2.1c6.67,0,13.27,0,19.88,0L260,779.69q28.19.24,56.36.51,0-3.76-.08-7.54h6.83v7.6L72.29,778.62v-6Z"/><path class="cls-1" d="M260,779.69,110.13,778.4c-6.61,0-13.21,0-19.88,0a8.7,8.7,0,0,1-.2-2.1c.44-1.76.32-2.9-.22-3.64H316.29q0,3.78.08,7.54Q288.18,779.9,260,779.69Z"/><path class="cls-1" d="M323.82,575.3s76.63-113.95,178.28,0-9.4-35-9.4-35l-31.91-39.92L423.26,489.7,386.92,498l-47.66,7.75L326.15,522.3l-17.27,22.8L311.26,563Z"/><polygon class="cls-1" points="403.64 27.73 414.05 27.73 809.83 398.37 769.27 442.71 410.76 113.03 403.64 27.73"/><polygon class="cls-1" points="403.64 27.73 12.17 398.37 52.73 442.71 410.76 113.03 403.64 27.73"/><path class="cls-1" d="M692.12,372.22l63,57.58-5.4,356.47H498.88l-.7-211s-81.5-114.16-174.36,0c3.14.16-.7,211-.7,211H72.29L66.89,429.8l63-57.58V719.77l134.51,1.31-1.77-178.36s136.5-184.08,296.76,0l-1.77,178.36,134.51-1.31Z"/></svg>