<svg id="Layer_1" data-name="Layer 1" xmlns="http://www.w3.org/2000/svg" viewBox="0 0 597.99 597.99"><defs><style>.cls-1{fill:#3b3b3b;}</style></defs><path class="cls-1" d="M125.58,541.36c6.18-35.83,12.79-74.36,19.5-112.88,2.32-13.34,6-26.56,6.81-40,.4-6.37-2.68-14.83-7.18-19.33C109.48,334,73.19,300,38.11,264.67c-5.89-5.92-10.88-16.34-10.29-24.23.88-11.86,13.34-13.38,23.34-14.86,48.62-7.2,97.21-14.6,145.94-21,9.87-1.3,15-5.21,19.11-13.77,21.46-44.26,43.46-88.25,65.2-132.38,4.51-9.17,8.61-18.33,21.23-18.3s16.86,9,21.39,18.18c21.69,44.12,43.64,88.12,65.05,132.39,4.15,8.57,9.22,12.53,19.11,13.79,50.25,6.38,100.44,13.36,150.47,21.27,7.24,1.14,17.62,7.37,19.15,13.19,1.77,6.71-2.51,17.71-7.9,23.17-35.63,36.15-72.53,71.06-108.26,107.11-4.73,4.77-8.24,14.21-7.21,20.68,7.71,48.51,17.17,96.74,24.84,145.25,1.31,8.29-.55,21.73-5.9,25.23-6.31,4.13-19.39,2.86-27.12-1-44.11-21.75-87.62-44.72-131-67.88-8.53-4.55-14.95-4.58-23.54,0-44.24,23.71-88.78,46.86-133.4,69.84C138.57,571.57,124.9,564.05,125.58,541.36Z"/></svg>