<svg id="Layer_1" data-name="Layer 1" xmlns="http://www.w3.org/2000/svg" xmlns:xlink="http://www.w3.org/1999/xlink" viewBox="0 0 981.59 343.04"><defs><style>.cls-1{fill:none;}.cls-2{fill:url(#linear-gradient);}.cls-3{fill:url(#linear-gradient-2);}.cls-4{clip-path:url(#clip-path);}.cls-5{clip-path:url(#clip-path-2);}.cls-6{fill:url(#linear-gradient-3);}.cls-7{clip-path:url(#clip-path-3);}.cls-8{clip-path:url(#clip-path-4);}.cls-9{fill:url(#linear-gradient-4);}.cls-10{clip-path:url(#clip-path-5);}.cls-11{clip-path:url(#clip-path-6);}.cls-12{fill:url(#linear-gradient-5);}.cls-13{clip-path:url(#clip-path-7);}.cls-14{clip-path:url(#clip-path-8);}.cls-15{fill:url(#linear-gradient-6);}.cls-16{clip-path:url(#clip-path-9);}.cls-17{clip-path:url(#clip-path-10);}.cls-18{fill:url(#linear-gradient-7);}.cls-19{clip-path:url(#clip-path-11);}.cls-20{clip-path:url(#clip-path-12);}.cls-21{fill:url(#linear-gradient-8);}.cls-22{clip-path:url(#clip-path-13);}.cls-23{clip-path:url(#clip-path-14);}.cls-24{fill:url(#linear-gradient-11);}.cls-25{fill:#fff;}</style><linearGradient id="linear-gradient" x1="165.68" y1="30.13" x2="165.68" y2="312.91" gradientUnits="userSpaceOnUse"><stop offset="0" stop-color="#3faf75"/><stop offset="0.04" stop-color="#6d90ca"/><stop offset="0.48" stop-color="#6496b9"/><stop offset="1" stop-color="#3cb170"/></linearGradient><linearGradient id="linear-gradient-2" x1="164.13" y1="-8.65" x2="164.13" y2="333.02" xlink:href="#linear-gradient"/><clipPath id="clip-path"><path class="cls-1" d="M363.46,227c-29.79.86-47.76-23.84-44.78-50,1.35-11.76,4.79-22.57,12.89-31.45,8.69-9.53,19.48-13.32,32.15-10.46,11.07,2.49,17.23,10.47,20.35,20.68,3.25,10.61-1.76,19.86-10.66,25.69a52.1,52.1,0,0,1-14.59,6.4c-6.61,1.85-12.86-.27-19.52-.82a4.3,4.3,0,0,0-2.66.4c-1.71,1.09-.6,6.15-.22,7.75a17.82,17.82,0,0,0,3.75,7.13,26.3,26.3,0,0,0,12.08,8.05c8.11,2.71,18.55,2.56,25.82-2.41,2.28-1.55,3.84-4.29,5.44-6.68a64.72,64.72,0,0,0,4-7.22c2-4,5.73-4.69,9-3.21s4.39,5,3.65,8.72a33.73,33.73,0,0,1-30.21,26.94C367.78,226.76,365.62,226.88,363.46,227ZM352.7,155.32c-5.8.09-10.55,4.34-10.49,9.38s5.11,9.09,10.86,9,10.63-4.35,10.51-9.34S358.43,155.23,352.7,155.32Z"/></clipPath><clipPath id="clip-path-2"><rect class="cls-1" x="282.1" y="111.18" width="154.52" height="154.52"/></clipPath><linearGradient id="linear-gradient-3" x1="-1048.11" y1="878.48" x2="-1048.2" y2="878.33" gradientTransform="matrix(1920, 0, 0, -1080, 2012797.99, 948872)" gradientUnits="userSpaceOnUse"><stop offset="0" stop-color="#6d90ca"/><stop offset="1" stop-color="#3cb170"/></linearGradient><clipPath id="clip-path-3"><path class="cls-1" d="M576.58,186.72c-.54,18.09-5.88,34.72-18.55,48.51-5,5.46-10.25,6.71-14,3.81s-3.65-8.43-.35-14.69c4-7.65,8.46-15.15,11.76-23.11,6.65-16.07,1.13-37.7-9.38-47.93-6.8-6.62-14.57-9.05-23.69-4.81-4.22,2-8.54,3.72-12.83,5.55-3.47,1.48-3.91,3.29-1.42,6.39a46.47,46.47,0,0,1,10.15,29.15c.11,7.77-2.37,14.79-10,18.16s-14.73,1.2-20.84-4.14c-12.47-10.89-14.66-26.47-5.24-41,2.72-4.19,1.73-6.15-1.9-8.21-9.29-5.28-18.91-6.05-28.74-1.81-6.77,2.92-8.86,9.15-10.2,15.65-4.36,21,3.79,37.73,18.32,52.16.95.93,2.35,1.55,2.95,2.65.71,1.31,1.44,3.27.92,4.38s-2.66,1.84-4,1.69c-8.16-.91-15.64-3.93-21.58-9.56-16-15.19-23-33.79-18.27-55.63,3.71-17.15,16.77-25.31,32.42-29.92,8.38-2.47,17.54-3.59,25.93-.56,4.51,1.63,8.07,4.35,11.61,7.49,4.25,3.79,9.85.46,13.89-1.84a141.92,141.92,0,0,1,17.61-8.93c6.86-2.71,14.46-4.2,21.65-2.54,12,2.77,20.42,13.45,25.39,24.12C573.17,162.27,576.93,175.08,576.58,186.72Zm-69.75-4.24c0-6.56-4.71-14.92-8.45-15.1-3.38-.16-8.93,7.67-8.88,12.54.06,5.48,5.53,11.76,10.25,11.74C503.77,191.65,506.85,187.65,506.83,182.48Z"/></clipPath><clipPath id="clip-path-4"><rect class="cls-1" x="413.78" y="93.59" width="167.39" height="167.39"/></clipPath><linearGradient id="linear-gradient-4" x1="-1048.04" y1="878.5" x2="-1048.13" y2="878.34" xlink:href="#linear-gradient-3"/><clipPath id="clip-path-5"><path class="cls-1" d="M719.07,190.61c-4,1.74-6.38,2.76-8.75,3.82-4.28,1.92-12.52,1.69-14.55-2s3.15-8.89,7-11.31a46.81,46.81,0,0,1,8.51-4.14c3-1.11,3.49-2.7,2.79-5.73-3.25-14.12-5.78-28.3-4.71-43,.9-12.24,4.88-23.17,12.95-32.26s17.52-16.46,29.24-20.22c7.88-2.54,14.09,2.74,13,10.54-.61,4.42-3.84,6.06-7.56,7.67-14,6.09-25.71,14.94-28,31.11-1.31,9.06-.24,18.47-.24,28.35L746,141.53c3.33-2.3,9.77-4,13.11-1.51s4.19,7.31,3.17,11.5-6.16,5.25-10.21,5.74c-8.61,1.06-18.09,14.61-16.55,23.16,3,17,4.45,34.15-.09,51a65.5,65.5,0,0,1-28.57,39,32.58,32.58,0,0,1-20.5,5c-5.65-.42-9.57-4.65-9.63-9.7a9.37,9.37,0,0,1,9.74-9.38c11.81.43,18.09-7.23,23.88-15.46a48.7,48.7,0,0,0,8.77-30.63C718.88,204.18,719.07,198.2,719.07,190.61Z"/></clipPath><clipPath id="clip-path-6"><rect class="cls-1" x="658.7" y="72.49" width="205.59" height="205.59"/></clipPath><linearGradient id="linear-gradient-5" x1="-1047.9" y1="878.52" x2="-1048.01" y2="878.32" xlink:href="#linear-gradient-3"/><clipPath id="clip-path-7"><path class="cls-1" d="M590.24,185.56c-.59-26.21,20.15-48.32,46-48.7,24-.36,47,17.51,47.94,46.89,1,29.14-21.35,49-45.55,49.61C612,234,590.85,213.21,590.24,185.56Zm74.21,1c-.16-17.72-9.87-29.47-23.54-31.09C628,153.93,615.82,163,613,176.68c-2.39,11.61.38,22,9.87,29.67,7.94,6.42,17.08,7.64,26.27,3.09C659.49,204.31,664.22,195.34,664.45,186.54Z"/></clipPath><clipPath id="clip-path-8"><rect class="cls-1" x="562.44" y="113.55" width="151.75" height="151.75"/></clipPath><linearGradient id="linear-gradient-6" x1="-1047.97" y1="878.48" x2="-1048.05" y2="878.33" xlink:href="#linear-gradient-3"/><clipPath id="clip-path-9"><path class="cls-1" d="M793.64,152c-1.14.21-2.29.46-3.48.71a14.46,14.46,0,0,1-4.77.3c-1.88-.26-4-.54-4.91-2.46a6.82,6.82,0,0,1-.41-3.44,15.17,15.17,0,0,1,9.37-12.78A18.32,18.32,0,0,1,800,134c18.61,4.52,34.93,18,45.53,33.58,8,11.8,12,25.65,9.28,40.38-2.29,12.31-9.49,19.39-22,21.36a74.5,74.5,0,0,1-45.65-6.86c-9-4.44-14.05-11.5-13.34-22,.27-4,.3-8,.75-11.95,1.89-16.29,10.54-24.4,26.77-27.75,2.3-.47,10.17-.73,9.81-4.51a3.56,3.56,0,0,0-1.88-2.6C804,150.63,799.06,151,793.64,152Zm19,21.8c-12.07.08-21.56,9-21.62,20.33-.06,11.57,9.51,20.87,21.57,21s21.84-9.25,21.9-20.69S824.78,173.69,812.66,173.77Z"/></clipPath><clipPath id="clip-path-10"><rect class="cls-1" x="762.44" y="123.36" width="112.32" height="112.32"/></clipPath><linearGradient id="linear-gradient-7" x1="-1047.88" y1="878.47" x2="-1047.95" y2="878.36" xlink:href="#linear-gradient-3"/><clipPath id="clip-path-11"><path class="cls-1" d="M914.4,231.49c-18.48-.14-30.67-8.74-37.32-23.17-9.1-19.73-7.91-39.66,5.49-57.62,7-9.32,16-16,28.21-16.88,6.2-.43,11.81,2.52,12.49,6.15.82,4.42-3.89,9.41-10.39,11-15.18,3.73-24.63,16.39-24.14,32.33.47,15.57,10.51,27.57,25.51,30.05,5.87,1,11.53.15,16.63-3.5,4.53-3.24,8.76-2.49,11.81,1.63,2.78,3.75,2,7.89-2.88,11C931.59,227.67,922.83,231.67,914.4,231.49Z"/></clipPath><clipPath id="clip-path-12"><rect class="cls-1" x="863.58" y="102.11" width="146.35" height="146.35"/></clipPath><linearGradient id="linear-gradient-8" x1="-1047.82" y1="878.49" x2="-1047.9" y2="878.35" xlink:href="#linear-gradient-3"/><clipPath id="clip-path-13"><circle class="cls-2" cx="165.68" cy="171.52" r="141.39"/></clipPath><clipPath id="clip-path-14"><rect class="cls-3" x="-6.71" y="-8.65" width="341.67" height="341.67"/></clipPath><linearGradient id="linear-gradient-11" x1="114.04" y1="-10.44" x2="114.04" y2="348.25" xlink:href="#linear-gradient"/></defs><g class="cls-4"><g class="cls-5"><rect class="cls-6" x="192.51" y="110.37" width="288.39" height="162.22"/></g></g><g class="cls-7"><g class="cls-8"><rect class="cls-9" x="316.73" y="92.72" width="312.4" height="175.72"/></g></g><g class="cls-10"><g class="cls-11"><rect class="cls-12" x="539.51" y="71.42" width="383.7" height="215.83"/></g></g><g class="cls-13"><g class="cls-14"><rect class="cls-15" x="474.46" y="112.76" width="283.21" height="159.3"/></g></g><g class="cls-16"><g class="cls-17"><rect class="cls-18" x="697.31" y="122.77" width="209.63" height="117.92"/></g></g><g class="cls-19"><g class="cls-20"><rect class="cls-21" x="778.73" y="101.35" width="273.14" height="153.64"/></g></g><circle class="cls-2" cx="165.68" cy="171.52" r="141.39"/><g class="cls-22"><rect class="cls-3" x="-6.71" y="-8.65" width="341.67" height="341.67"/><g class="cls-23"><rect class="cls-24" x="-204.8" y="-10.44" width="637.67" height="358.69"/></g></g><path class="cls-25" d="M61.68,168.93c-.16-10.41,2-20.22,7.68-29.06A47.06,47.06,0,0,1,94,120.78c8.48-3,17.25-5.22,26-7.37a243.66,243.66,0,0,0,44.73-16.19c13.21-6.17,27-10.28,41.76-10.26,16.63,0,31.18,5.35,42.66,17.83,5.87,6.37,9.87,13.9,13.27,21.8a41.89,41.89,0,0,1,3.54,14.84c.28,6.67.83,13.35.6,20a87.13,87.13,0,0,1-2.81,18.94,96,96,0,0,1-9.33,24.13,14.07,14.07,0,0,1-3.22,3.78c-2.64,2.18-6.71.52-7.64-2.94s-.28-6.68.49-9.94c1.23-5.22,2.84-10.36,3.86-15.61a105.5,105.5,0,0,0,1.76-14.39c.19-3.85-.44-7.74-.57-11.63-.22-6.33-2.06-12.3-4.39-18.08-3-7.36-6.63-14.48-12.67-19.83-4.88-4.33-10.29-8-16.74-9.82-3.82-1.07-7.58-2.5-11.46-3.24-7.41-1.42-14.34.32-20.83,4-4,2.29-4.16,6.21-.3,8.93,2.36,1.66,4.85,3.16,7.14,4.91a94.87,94.87,0,0,1,9.5,7.77c3.71,3.67,6.22,8.27,8.67,12.86a33.65,33.65,0,0,1,4.31,12.82,78.33,78.33,0,0,1,0,11.36,38.33,38.33,0,0,1-1.22,6.95,30.89,30.89,0,0,1-1.63,3.58,35.87,35.87,0,0,1-8.85,12.45c-5.22,5-11.46,8.34-18.79,8.48-15.73.29-29-5.1-38.34-18.23-4.83-6.77-7.25-14.53-8.33-22.73a79.62,79.62,0,0,1-.09-19,17,17,0,0,0-.32-5.32c-.68-3.18-2.52-4.56-5.77-4.68a26.67,26.67,0,0,0-12.54,3c-16.51,7.89-27.17,20.79-31.29,38.56-2.95,12.75-.53,25.06,5.57,36.59a79.77,79.77,0,0,0,18.82,23.35A63.86,63.86,0,0,0,135,241.89c3.5.92,6.92,2.24,10.47,2.9,7.35,1.37,14.65,3.23,22.25,2.92a14.43,14.43,0,0,1,5.35,1.24,3.28,3.28,0,0,1,2,4.38c-.88,2.73-2.52,4.75-6.16,4.86-7.43.22-14.94.9-22.28.1a90,90,0,0,1-21.86-4.66,128,128,0,0,1-20.93-9.84c-7.21-4.31-13.09-10.15-18.84-16.13-9.62-10-15.55-22.12-19.8-35.16A81.46,81.46,0,0,1,61.68,168.93Zm90.08-19c0,9.25,2.44,17.18,8.66,23.66,3.51,3.66,7.67,6.55,12.67,7.4a21,21,0,0,0,17.62-4.76c3-2.52,5.4-5.35,6-9.32a65.3,65.3,0,0,0,.92-7.35A19,19,0,0,0,194.93,148a49.52,49.52,0,0,0-26-20.2c-5.39-1.83-9.27-.55-12.89,4.8S151.94,144.14,151.76,150Z"/></svg>