<svg id="Layer_1" data-name="Layer 1" xmlns="http://www.w3.org/2000/svg" viewBox="0 0 240.19 562.73"><defs><style>.cls-1{fill:#fff;}</style></defs><title>BIO ICONS</title><path class="cls-1" d="M25,485c-1.1-42.11,32-76.69,74.21-78.06,40.39-1.31,77.3,30.21,78.41,74.31A76.33,76.33,0,1,1,25,485Z"/><path class="cls-1" d="M171.75,77.73c1.94,40.2-30.83,77-74,78.18-42.18,1.18-77.3-32.55-78.4-74.31C18.29,41.27,49.58,4.12,94.05,3.21,139.67,2.29,171.82,39.34,171.75,77.73Z"/><path class="cls-1" d="M174.71,280.22c1.3,42-32.12,75.5-71,78-45.29,2.92-78.86-33-81.39-70.55-2.92-43.17,30.17-80.71,73.93-82A76,76,0,0,1,174.71,280.22Z"/></svg>