<svg id="Layer_1" data-name="Layer 1" xmlns="http://www.w3.org/2000/svg" viewBox="0 0 595.35 563.09"><defs><style>.cls-1{fill:#707070;}</style></defs><path class="cls-1" d="M315.72,26c35.43.63,67.89,4.37,99.06,16.05,19,7.11,36,17.57,51.71,30.3a322,322,0,0,1,57.06,59.57c19.11,26.07,30.91,55.5,38.05,86.87a272.78,272.78,0,0,1,6.77,52.72c1.62,55-12.75,105.57-42.35,151.82-21,32.8-48.13,59.29-82.11,78.54-24.73,14-51.12,23.47-79.34,27.18A270.05,270.05,0,0,1,327,531.82c-26.21-.21-51.65-5.3-76.48-13.85-19.6-6.74-39.35-13.13-59.27-18.88-21.73-6.28-44.05-6.79-66.51-4.89-20.9,1.78-41.44,5.68-62,9.81a195.88,195.88,0,0,1-23.73,2.75,20.67,20.67,0,0,1-8.13-1.57c-3.32-1.19-5-4.17-3.61-7.44a60,60,0,0,1,7.05-13.36c13.27-17.54,23-36.91,30.26-57.54a107.06,107.06,0,0,0,5.13-21.14c1.47-11-2-21.33-6.78-31.15-3.15-6.46-6.56-12.79-9.74-19.23A129.39,129.39,0,0,1,40,304.42a369.69,369.69,0,0,1-.46-40.08c1.93-35,9.83-68.63,25.76-100.11,9.56-18.9,22.5-35.33,37-50.59,39.57-41.56,88.12-67,143.66-79.82a291.28,291.28,0,0,1,48.23-6.7C302.2,26.64,310.17,26.28,315.72,26ZM302.65,319.14A47,47,0,1,0,255.54,272,46.81,46.81,0,0,0,302.65,319.14Zm96.55-47.09a33.46,33.46,0,1,0,66.92,0,33.46,33.46,0,1,0-66.92,0Zm-199.07.09a33.42,33.42,0,0,0-33.33-33.63c-18.51,0-33.89,15.21-33.6,33.74s14.22,33.18,33.28,33.35A33,33,0,0,0,200.13,272.14Z"/></svg>