<svg id="Layer_1" data-name="Layer 1" xmlns="http://www.w3.org/2000/svg" viewBox="0 0 595.11 564.54"><defs><style>.cls-1{fill:#bbb;}</style></defs><path class="cls-1" d="M315.6,29.35c35.42.63,67.89,4.37,99,16,19,7.11,36,17.57,51.71,30.3a321.33,321.33,0,0,1,57.06,59.57c19.11,26.07,30.92,55.5,38.06,86.87a273.56,273.56,0,0,1,6.77,52.72c1.62,55-12.76,105.57-42.35,151.82-21,32.8-48.14,59.29-82.11,78.54-24.74,14-51.13,23.47-79.35,27.18a271.35,271.35,0,0,1-37.53,2.79c-26.21-.22-51.65-5.31-76.48-13.85-19.61-6.75-39.36-13.14-59.27-18.89-21.73-6.27-44.06-6.79-66.51-4.88-20.9,1.77-41.44,5.67-62,9.8A196.34,196.34,0,0,1,39,510.12a20.67,20.67,0,0,1-8.13-1.57c-3.33-1.19-5-4.17-3.61-7.43a59.48,59.48,0,0,1,7-13.37c13.26-17.54,23-36.91,30.26-57.54a107.06,107.06,0,0,0,5.13-21.14c1.46-11-2-21.33-6.79-31.15-3.14-6.46-6.55-12.79-9.74-19.23A129.38,129.38,0,0,1,39.9,307.78a372.1,372.1,0,0,1-.47-40.07c1.93-35,9.84-68.64,25.76-100.12,9.56-18.89,22.51-35.33,37-50.59,39.56-41.56,88.12-67,143.66-79.82a292.34,292.34,0,0,1,48.23-6.7C302.07,30,310.05,29.64,315.6,29.35ZM302.52,322.5a47,47,0,1,0-47.1-47.19A46.81,46.81,0,0,0,302.52,322.5Zm96.55-47.09a33.46,33.46,0,1,0,66.92,0,33.46,33.46,0,1,0-66.92,0ZM200,275.5a33.39,33.39,0,0,0-33.32-33.62c-18.51,0-33.9,15.2-33.61,33.73s14.22,33.18,33.28,33.35A33,33,0,0,0,200,275.5Z"/></svg>