<svg id="Layer_1" data-name="Layer 1" xmlns="http://www.w3.org/2000/svg" viewBox="0 0 689.66 504.36"><defs><style>.cls-1{fill:#bbb;}</style></defs><path id="Union_3" data-name="Union 3" class="cls-1" d="M26.48,442.89C0,416.38,27.36,329.67,137.85,298.18a144.67,144.67,0,1,1,168-2c110.17,28.87,146.89,114.94,108,146.67C391,461.47,309.54,469.63,226.92,469.63,135.83,469.63,43.32,459.71,26.48,442.89Z"/><path id="Union_4" data-name="Union 4" class="cls-1" d="M406.11,451.91c-17.58-17.59.54-75,73.73-95.84a95.82,95.82,0,1,1,111.24-1.31c73,19.12,97.28,76.12,71.5,97.15-15.09,12.29-69,17.7-123.75,17.7C478.46,469.68,417.26,463,406.11,451.91Z"/></svg>