<svg id="Layer_1" data-name="Layer 1" xmlns="http://www.w3.org/2000/svg" viewBox="0 0 712.13 527.52"><defs><style>.cls-1{fill:#707070;stroke:#707070;stroke-miterlimit:10;stroke-width:2px;}</style></defs><path id="Union_3" data-name="Union 3" class="cls-1" d="M37.72,454.47C11.23,428,38.6,341.25,149.09,309.76a144.67,144.67,0,1,1,168-2C427.22,336.67,464,422.74,425,454.47c-22.79,18.58-104.25,26.74-186.86,26.74C147.07,481.21,54.55,471.29,37.72,454.47Z"/><path id="Union_4" data-name="Union 4" class="cls-1" d="M417.35,463.49c-17.59-17.59.54-75,73.72-95.84a95.82,95.82,0,1,1,111.24-1.31c73,19.12,97.29,76.12,71.51,97.15-15.1,12.29-69,17.7-123.76,17.7C489.69,481.26,428.5,474.62,417.35,463.49Z"/></svg>