<svg id="Layer_1" data-name="Layer 1" xmlns="http://www.w3.org/2000/svg" viewBox="0 0 244 217.88"><defs><style>.cls-1{fill:#b9c4e1;}.cls-2{fill:#fff;}</style></defs><circle class="cls-1" cx="122" cy="108.94" r="89.14" transform="translate(-41.3 118.17) rotate(-45)"/><ellipse class="cls-2" cx="122" cy="97.54" rx="34.68" ry="48.03"/><path class="cls-2" d="M121.45,142.49c-29,0-55,7-72.23,17.89a89.1,89.1,0,0,0,145.22.48C177.19,149.66,150.9,142.49,121.45,142.49Z"/><rect class="cls-2" x="103.47" y="108.94" width="37.06" height="56.61" rx="9.62"/><path class="cls-2" d="M92.8,100.27c1,7.7-.67,14.37-3.82,14.91s-6.54-5.27-7.58-13,.67-14.38,3.82-14.92S91.76,92.57,92.8,100.27Z"/><path class="cls-2" d="M151.2,100.27c-1,7.7.67,14.37,3.82,14.91s6.54-5.27,7.58-13-.67-14.38-3.82-14.92S152.24,92.57,151.2,100.27Z"/><path class="cls-2" d="M88.53,95.65Q86.79,84.11,85,72.58c-.42-2.79-.83-5.73.19-8.36s4-4.73,6.65-3.75c-1.06-5.34,4.86-9.29,10-11.07,8.64-3,17.9-4.49,27-3.32s17.91,5.18,24,12a21.38,21.38,0,0,1,4.53,7.33c1.77,5.28.64,11-.5,16.48l-2.73,13a5.79,5.79,0,0,1-1.11,2.77c-1.08,1.2-2.89,1.29-4.5,1.29L97,99c-3.24,0-7.46-.79-7.88-4"/></svg>