<svg id="Layer_1" data-name="Layer 1" xmlns="http://www.w3.org/2000/svg" viewBox="0 0 674.99 867.03"><defs><style>.cls-1{fill:#707070;stroke:#707070;stroke-miterlimit:10;stroke-width:2px;}</style></defs><path class="cls-1" d="M477.15,244.2,292.69,206.4c-71.63-14.67-143.21-29.6-214.92-43.8C61.41,159.36,55.35,152,59.93,135.48,63.4,123,65.48,110,67.71,97.18,71,78.07,80.66,70,101.06,73.32,140.37,79.74,180,84.19,219.37,90.23c9.52,1.46,17.46,2.15,21.85-8,5.53-12.72,14.66-12.91,26.75-10.33,57.35,12.21,114.89,23.49,172.29,35.45,8.6,1.79,20,1.34,20.29,14.8.3,15.6,10.44,19.7,23.46,22.91,35.13,8.65,70,18.24,104.94,27.75,27.58,7.51,31,13.4,25.23,42.12-2.14,10.64-5.4,21.12-6.72,31.85-1.81,14.84-7.69,23.59-24,19.28-11.92-3.16-11.16,5.15-12.08,12.22q-17.32,133.59-34.6,267.2c-9.08,70.4-17.78,140.85-27.13,211.21-3.84,28.88-17.5,39.24-52.25,39.39-84.81.38-169.62.19-254.43.22-10.15,0-20.31.23-30.44-.18-32.43-1.28-44.29-12.07-48.42-43.66q-10.69-81.88-21.31-163.76C89.11,481.7,76,374.57,61.3,267.66,59,251,62.85,248.75,77.88,248.81c127.57.54,255.15.34,382.72.36h16.54C477.14,247.52,477.15,245.86,477.15,244.2ZM167.06,359.13C177.33,478,188,601.24,198.64,724.51c1.05,12.12,2.86,25.26,18.92,22.82,15.54-2.36,13.74-15.49,12.64-27.59-5.4-59.08-10.38-118.2-15.54-177.3Q206,443,197.29,343.49c-1-12-4.25-22.52-18.82-20.81-13.85,1.63-13.56,12.69-12.35,23.36C166.44,348.91,166.54,351.81,167.06,359.13ZM467.82,353a145.79,145.79,0,0,0,.66-16.46c-.33-8.28-5.13-13.61-13.52-14.28-8.21-.65-14,3.54-16.2,11.48-1.33,4.81-1.55,10-2,15q-16.33,185.94-32.69,371.88c-1.08,12.2-2.34,25.24,13.51,26.88,16.35,1.7,17.16-12.2,18.18-23.86C446.37,601.79,456.85,480,467.82,353Zm-135,183.95q0-91.23,0-182.45c0-5.79,0-11.58-.17-17.37-.22-9.52-5.83-15.5-14.56-15.86-9.94-.42-15.9,5.78-16.27,16.23-.16,4.34-.14,8.69-.14,13q0,184.62,0,369.24c0,5.06-.07,10.15.41,15.18.8,8.49,6.53,13.32,14.21,13.8,9.08.56,14.87-5.07,16-14.18.74-5.71.45-11.56.45-17.35Q332.83,627.07,332.8,536.93Z"/></svg>