<svg id="Layer_1" data-name="Layer 1" xmlns="http://www.w3.org/2000/svg" viewBox="0 0 539.81 539.81"><defs><style>.cls-1{fill:#fff;}</style></defs><title>BIO ICONS</title><path class="cls-1" d="M435.05,219.89c-5.55-12.94-11.58-25.67-19.82-37.12-9.37-11.76-19.12-23.21-29.5-34.1S365.16,127,353.62,117.44a263.33,263.33,0,0,0-24.12-14.79,31.15,31.15,0,0,1-4-2.67c-.75.86-1.52,1.69-2.3,2.49A43.83,43.83,0,0,1,312,110.65q-45.9,46.42-91.91,92.71-50.12,50.44-100.32,100.79C100.05,323.78,80,343,60.17,362.52c-4.14,4.06-8.17,8.25-12,12.58-6.85,7.72-8.89,17.42-11.11,27,25.51,3.48,48.49,10.52,66.5,30.49,17.68,19.6,27.74,41.3,25.71,68.28,4.78-.28,8.86-.56,13-.74A42.2,42.2,0,0,0,171.57,487c20.14-20.4,40.56-40.53,60.78-60.85q60-60.33,120-120.75,41.7-41.93,83.46-83.78C435.54,221.07,435.29,220.48,435.05,219.89Z"/><path class="cls-1" d="M521.15,133.58c-1.19-12.37-4.4-24.27-8.51-36-2-5.68-3.54-11.45-8.17-15.88-16.05-15.39-31.92-31-47.94-46.4a12.2,12.2,0,0,0-4.87-2.88c-12-3.46-24.13-6.37-36-10.23-6-1.94-10.69-.9-14.95,3q-13.83,12.63-27.33,25.62a223.38,223.38,0,0,1,35.53,26.23,487,487,0,0,1,34.9,36.07c12.49,14.11,25.5,28.85,35.21,45,2.69,4.49,5.12,9.11,7.41,13.81,5.7-5.37,11.38-10.76,17-16.23,5.84-5.71,11.31-11.82,16.75-17.91A6.18,6.18,0,0,0,521.15,133.58Z"/><path class="cls-1" d="M32.43,424.26a1.68,1.68,0,0,0-.35.66c-6.4,17.83-12.77,35.69-16.38,54.35-1.53,7.89-2.77,16.12-2.07,24.17.45,5.24,1.89,11.6,7,14.2,9.08,4.62,19.1,5,29.25,4.44a177.4,177.4,0,0,0,22.61-2.9q8.71-1.62,17.41-3.39c3-.6,5.93-1.24,8.89-1.88,5.43-1.17,8.41-3,8.94-8.87.75-8.16-.25-15.94-1-24a46.85,46.85,0,0,0-2.83-11.29A56.68,56.68,0,0,0,88.73,447.2a78.22,78.22,0,0,0-22.12-13.79A118.5,118.5,0,0,0,51,428.05c-5.77-1.56-11.56-3-17.45-4a1.32,1.32,0,0,0-.92.06A.58.58,0,0,0,32.43,424.26Z"/><path class="cls-1" d="M360.84,63.9l39.9-38.69s6.92-5.32,12.79-3.56c-3.65-.36,40.91,9,43,13.69l49.66,48.27s13,19.66,15,51.66c-1,2.56-49,50.22-49,50.22l-23.85-46-52-52.92Z"/><polyline class="cls-1" points="304.27 118.42 333.05 89.45 385.63 115.02 430.63 164.02 444.38 214.27 429.54 227.94 390.13 193.77 329.38 134.52 304.27 120.27"/><polygon class="cls-1" points="357.38 66.52 407.88 17.52 454.38 28.52 508.38 80.52 526.38 139.52 474.38 190.02 448.28 139.48 399.09 89.45 357.38 66.52"/></svg>