<svg id="Layer_1" data-name="Layer 1" xmlns="http://www.w3.org/2000/svg" viewBox="0 0 596.38 596.38"><defs><style>.cls-1{fill:#bbb;}.cls-2{fill:#040404;}</style></defs><path class="cls-1" d="M565.46,298.15c0,147.37-120.52,267.62-267.87,267.31S30.57,444.66,30.92,297C31.27,151.1,151.27,31.31,297.46,30.92,444.73,30.54,565.46,150.92,565.46,298.15Zm-341.65-33c17.17-.76,34.32-9.73,46.31,7,12.33,17.24.93,32.63-5.6,47.8-5.09,11.8-10.48,23.43-12.1,36.19-2.73,21.59,3.85,27.24,25,23.1,13.63-2.66,27.1-3.15,26.48-23.83-.21-7.32,9.76-15.33,15.83-22.38,13.36-15.48,28.46-29.61,40.6-46,36.26-48.86,13.15-106.79-46-118.85-23.1-4.71-45.58-3.75-68.51.36-11.94,2.14-17.9,6.7-18.18,19.69C227.13,213.65,225.21,239,223.81,265.16ZM284,462.6c19.86-.12,39.17-16,39.67-32.65.54-18-18.88-34.26-40.62-34.05-20.68.2-38.84,15.17-39.36,32.44C243.12,446.66,262,462.73,284,462.6Z"/><path class="cls-2" d="M223.81,265.16c1.4-26.17,3.32-51.51,3.86-76.87.28-13,6.24-17.55,18.18-19.69,22.93-4.11,45.41-5.07,68.51-.36,59.15,12.06,82.26,70,46,118.85-12.14,16.36-27.24,30.49-40.6,46-6.07,7.05-16,15.06-15.83,22.38.62,20.68-12.85,21.17-26.48,23.83-21.18,4.14-27.76-1.51-25-23.1,1.62-12.76,7-24.39,12.1-36.19,6.53-15.17,17.93-30.56,5.6-47.8C258.13,255.43,241,264.4,223.81,265.16Z"/><path class="cls-2" d="M284,462.6c-22,.13-40.86-15.94-40.31-34.26.52-17.27,18.68-32.24,39.36-32.44,21.74-.21,41.16,16.07,40.62,34.05C323.15,446.59,303.84,462.48,284,462.6Z"/></svg>