<svg id="Layer_1" data-name="Layer 1" xmlns="http://www.w3.org/2000/svg" viewBox="0 0 596.38 596.38"><defs><style>.cls-1{fill:#707070;stroke:#707070;stroke-miterlimit:10;stroke-width:2px;}</style></defs><path class="cls-1" d="M297.46,30.92C151.27,31.31,31.27,151.1,30.92,297c-.35,147.67,119.33,268.15,266.67,268.47S565.45,445.52,565.46,298.15,444.73,30.54,297.46,30.92ZM284,462.6c-22,.13-40.86-15.94-40.31-34.26.52-17.27,18.68-32.24,39.36-32.44,21.74-.21,41.16,16.07,40.62,34.05C323.15,446.59,303.84,462.48,284,462.6Zm76.38-175.51c-12.14,16.36-27.24,30.49-40.6,46-6.07,7.05-16,15.06-15.83,22.38.62,20.68-12.85,21.17-26.48,23.83-21.18,4.14-27.76-1.51-25-23.1,1.62-12.76,7-24.39,12.1-36.19,6.53-15.17,17.93-30.56,5.6-47.8-12-16.75-29.14-7.78-46.31-7,1.4-26.17,3.32-51.51,3.86-76.87.28-13,6.24-17.55,18.18-19.69,22.93-4.11,45.41-5.07,68.51-.36C373.51,180.3,396.62,238.23,360.36,287.09Z"/></svg>