<svg id="Layer_1" data-name="Layer 1" xmlns="http://www.w3.org/2000/svg" viewBox="0 0 822 814"><defs><style>.cls-1{fill:#fff;}</style></defs><title>new navigation icon</title><path class="cls-1" d="M508.27,541.29C471,573.94,431.81,596,387.18,607.74c-66.85,17.61-132.24,12.81-194.78-16.44C103.7,549.82,48.24,480.43,26.62,384.93,1,271.61,51.45,148.55,148.77,84.57c55.17-36.27,116-52.69,181.53-47.36C468.1,48.42,570,147.83,594.56,272.69c15.71,79.93-.39,154.25-46.09,221.88-2.9,4.3-2.79,6.72,1,10.3,9.66,9.15,18.6,19.06,28.41,28,2.47,2.26,7.46,3.66,10.69,2.89,26.56-6.29,48.62,1.38,67.59,20.2,28.57,28.36,57.33,56.54,85.86,84.94,26.75,26.62,28,65.5,3.24,92.28-24.38,26.33-65.8,29.86-92.66,5.19-33.35-30.63-65.15-63-96.79-95.4-15.7-16.08-19.34-36.47-15-58.42.61-3,.56-7.47-1.2-9.49C529.63,563.66,519,552.77,508.27,541.29ZM542,331.54c.59-126.91-103-233.22-228.13-234C183.91,96.71,80.49,197,79.62,324.78,78.73,454.6,182,560.62,311.52,561.33,442.34,562.05,542.64,456.63,542,331.54ZM605.4,589.17c-3.14,2.55-7.56,4.41-7.8,6.71-.44,4.14.22,9.94,2.87,12.62,28.23,28.58,56.94,56.68,85.5,84.92,5,5,10.66,7.87,16.46,1.88s2.43-11.68-2.45-16.49q-42.24-41.62-84.64-83.09C612.77,593.21,609.25,591.67,605.4,589.17Z"/></svg>