<svg id="Layer_1" data-name="Layer 1" xmlns="http://www.w3.org/2000/svg" viewBox="0 0 686.95 613.3"><defs><style>.cls-1{fill:#707070;stroke:#707070;stroke-miterlimit:10;stroke-width:2px;}.cls-2{fill:#fefefe;}</style></defs><path class="cls-1" d="M344.56,577.56c-42.66-.22-83.22-9.52-121.27-28.78-22.26-11.26-43-24.9-61.45-41.93-24.81-22.86-45-49-60-79.25a273.76,273.76,0,0,1-26.08-84.05,264.81,264.81,0,0,1,1.32-83.21c6-34.3,18.37-66.08,36.39-96a266.5,266.5,0,0,1,151-117.24C300.61,36,337.78,31,375.38,34.2c44,3.71,85.4,16.31,123.12,40.54,23.37,15,43.67,32.89,60.3,54.89C579.46,157,594,187.06,598.5,221.47c5.4,41-5.37,77.77-29.64,110.45C555.43,350,538.07,364,517.54,374.21c-22.24,11.07-46,17.51-69.49,24.81-31.18,9.71-43.31,44.64-25,70.49,2.92,4.13,6.15,8.44,10.91,11,18.23,9.81,26.93,25.47,24.7,45.68-2.16,19.62-14.13,32.46-32.94,38.69C403.93,572.12,366.84,578,344.56,577.56Z"/><path class="cls-2" d="M488.82,167.16c24.29-.28,44.52,21.29,43.82,46-.72,25.35-19.88,44.31-45.09,44-26.41-.32-45.73-20-44.75-46.85C443.67,186.37,462.07,166.81,488.82,167.16Z"/><path class="cls-2" d="M364.87,80.55c24.54.78,45.09,19.1,44.55,45.9C409,149.79,391,171.52,362.1,170.13c-24.77-1.19-42-19.32-42.66-43.57C318.69,100.24,339.18,80.54,364.87,80.55Z"/><path class="cls-2" d="M176.09,170.85c2-24.15,18.71-43.27,44.46-43.67,27.47-.42,45.25,20.48,45.55,43.08.37,28.48-19.3,47.47-45.48,46.86C195.56,216.53,176.7,199.29,176.09,170.85Z"/><path class="cls-2" d="M127.89,314.54c-1-23.2,19.76-45.67,45.13-44.86,23.35.75,45,17.81,44.68,46.06-.27,22.84-18,44.23-46.42,43.9C148.32,359.37,127.26,340.07,127.89,314.54Z"/></svg>